<?xml version="1.0" standalone="no"?>
<!DOCTYPE svg PUBLIC "-//W3C//DTD SVG 20010904//EN"
 "http://www.w3.org/TR/2001/REC-SVG-20010904/DTD/svg10.dtd">
<svg version="1.0" xmlns="http://www.w3.org/2000/svg"
 width="630.000000pt" height="630.000000pt" viewBox="0 0 630.000000 630.000000"
 preserveAspectRatio="xMidYMid meet">
<metadata>
Created by potrace 1.14, written by Peter Selinger 2001-2017
</metadata>
<g transform="translate(0.000000,630.000000) scale(0.100000,-0.100000)"
fill="#000000" stroke="none">
<path d="M3418 6200 c-10 -6 -18 -8 -18 -4 0 3 -7 1 -15 -6 -8 -7 -15 -9 -15
-5 0 4 -6 2 -13 -4 -8 -6 -17 -8 -20 -4 -4 3 -7 1 -7 -6 0 -8 -8 -11 -19 -8
-15 3 -18 1 -14 -11 4 -10 2 -13 -5 -8 -7 4 -12 1 -12 -8 0 -10 -6 -13 -17 -9
-10 4 -14 2 -10 -4 7 -11 -20 -28 -36 -24 -5 1 -6 -3 -2 -8 3 -6 -4 -15 -15
-21 -11 -6 -18 -15 -15 -20 3 -4 -9 -13 -26 -19 -17 -6 -28 -15 -24 -20 3 -6
-4 -8 -16 -6 -18 4 -19 2 -7 -12 9 -12 9 -15 0 -9 -7 4 -15 1 -18 -8 -3 -9
-13 -16 -21 -16 -8 0 -11 -5 -7 -12 5 -7 2 -9 -9 -5 -11 4 -14 2 -10 -9 3 -7
0 -14 -7 -14 -6 0 -9 -4 -6 -9 3 -5 -1 -11 -9 -15 -8 -3 -15 -12 -15 -19 0 -8
-8 -14 -17 -14 -51 0 -66 -6 -99 -40 -38 -41 -53 -70 -60 -118 -3 -16 -14 -65
-25 -109 -22 -84 -25 -98 -35 -161 -11 -69 -11 -89 3 -135 13 -44 54 -90 81
-90 10 0 88 -148 92 -178 5 -26 23 -31 58 -16 56 24 64 23 110 -8 46 -32 77
-71 68 -87 -4 -5 -2 -12 4 -16 6 -4 7 -12 1 -24 -6 -10 -12 -30 -15 -46 -6
-33 -1 -28 -51 -53 -82 -41 -110 -58 -112 -67 -2 -6 -6 -10 -10 -10 -5 0 -14
-4 -20 -8 -7 -5 -17 -5 -23 -2 -5 3 -10 2 -10 -4 0 -5 -11 -8 -25 -6 -14 1
-28 -2 -31 -7 -3 -5 -12 -7 -19 -4 -7 2 -24 -2 -39 -9 -19 -10 -24 -11 -19 -2
5 9 3 9 -8 1 -15 -12 -84 -37 -109 -40 -8 -1 -27 -6 -41 -12 -15 -6 -30 -8
-35 -4 -4 4 -4 1 0 -6 4 -7 13 -9 19 -5 7 4 6 -1 -2 -10 -8 -10 -16 -15 -18
-13 -6 6 -43 -32 -43 -44 0 -5 -8 -6 -17 -3 -12 5 -15 2 -10 -10 3 -9 2 -17
-3 -17 -6 0 -19 -9 -30 -20 -11 -11 -17 -20 -13 -20 4 0 2 -5 -4 -11 -6 -6 -9
-18 -6 -25 3 -8 1 -14 -5 -14 -22 0 -125 -106 -148 -153 -31 -61 -35 -76 -35
-151 0 -47 7 -73 31 -123 l32 -64 -26 -20 c-33 -26 -104 -135 -116 -180 -9
-32 -13 -35 -40 -31 -16 2 -27 8 -24 13 8 14 -47 128 -71 147 -12 10 -29 31
-38 47 -8 17 -30 50 -48 75 -19 25 -39 60 -45 78 -12 34 -11 41 25 127 12 27
30 94 35 126 2 14 -4 45 -15 68 -19 43 -17 71 7 71 21 0 56 61 43 76 -7 8 -7
14 1 19 5 3 10 3 10 0 0 -4 14 3 31 15 43 32 69 103 49 140 -8 15 -5 24 16 45
19 19 25 33 21 52 -3 19 3 32 25 52 24 22 32 38 35 77 4 42 2 53 -21 77 -34
36 -78 34 -112 -6 -13 -16 -22 -33 -18 -38 3 -5 1 -9 -4 -9 -5 0 -8 -24 -7
-52 2 -33 -3 -61 -12 -75 -9 -13 -13 -32 -10 -43 3 -11 1 -22 -4 -25 -4 -3 -5
-13 -2 -21 3 -9 0 -33 -7 -55 -13 -37 -30 -47 -73 -40 -4 1 -5 -12 -2 -28 4
-23 -1 -36 -20 -55 -14 -14 -25 -32 -25 -41 0 -10 -16 3 -38 32 -21 26 -55 57
-75 68 -25 13 -35 25 -32 36 3 9 -1 31 -9 50 -8 19 -13 56 -11 83 4 58 -17
108 -51 127 -13 7 -24 20 -24 30 0 20 -21 71 -32 79 -4 3 -3 22 1 41 9 38 -10
91 -42 124 -17 17 -77 21 -77 5 0 -6 -11 -23 -24 -37 -23 -25 -24 -28 -11 -70
15 -49 29 -70 54 -78 9 -3 18 -17 19 -32 3 -35 30 -76 47 -69 7 2 16 -2 19
-10 3 -8 2 -14 -2 -14 -4 0 -13 -20 -20 -45 -10 -38 -10 -51 3 -75 8 -16 24
-31 34 -35 11 -3 18 -12 15 -19 -3 -8 2 -30 10 -50 l15 -36 -40 -26 c-56 -35
-69 -39 -69 -21 0 8 -15 28 -33 44 -18 15 -33 38 -34 51 -3 44 -72 112 -113
112 -18 0 -100 87 -100 105 0 43 -75 108 -116 100 -10 -2 -23 -4 -27 -4 -5 -1
-5 -6 -2 -11 3 -6 0 -13 -9 -16 -20 -8 -29 -54 -17 -86 12 -31 65 -70 95 -70
14 -1 30 -12 41 -29 11 -15 30 -32 42 -38 15 -7 22 -18 21 -33 -4 -42 33 -87
84 -106 26 -9 52 -26 59 -38 6 -12 21 -27 33 -34 21 -11 32 -40 15 -40 -4 0
-20 -20 -35 -44 l-28 -45 -36 22 c-19 12 -36 21 -37 19 -10 -9 -25 2 -38 28
-24 47 -96 76 -142 59 -14 -5 -23 -5 -23 1 0 5 -22 19 -50 32 -28 13 -50 28
-50 34 0 6 -9 19 -19 28 -24 22 -111 49 -111 35 0 -6 -5 -7 -10 -4 -6 3 -13
-2 -16 -12 -3 -10 -10 -28 -16 -40 -27 -57 33 -118 109 -110 26 3 47 0 53 -8
5 -6 27 -17 47 -23 25 -8 44 -22 55 -42 22 -38 79 -64 125 -55 18 3 33 2 33
-3 0 -13 59 -36 87 -34 23 2 27 -5 23 -46 -3 -43 165 -217 205 -212 3 0 19 -7
35 -15 17 -9 30 -13 30 -9 0 4 6 2 13 -3 6 -5 26 -10 42 -12 17 -2 32 -8 34
-13 5 -14 36 -45 49 -49 6 -2 16 -35 22 -74 14 -90 42 -148 100 -207 45 -45
46 -47 32 -75 -36 -67 -3 -173 68 -221 49 -33 124 -27 183 14 51 36 70 72 69
130 -1 26 3 44 10 44 13 0 88 76 105 107 7 12 15 36 18 53 3 17 16 45 28 61
20 28 25 30 57 22 54 -12 165 -9 183 5 13 11 19 9 40 -12 14 -14 28 -22 31
-19 3 4 6 1 6 -5 0 -7 7 -12 15 -12 9 0 19 -9 23 -19 7 -19 10 -21 32 -21 6 0
10 -8 10 -17 0 -15 2 -16 10 -3 5 8 10 10 10 4 0 -6 15 -17 33 -25 17 -7 34
-15 37 -18 13 -15 43 -35 37 -24 -5 8 -1 8 17 0 13 -7 22 -15 19 -20 -2 -4 -1
-7 4 -6 36 6 38 0 36 -103 -2 -95 4 -147 23 -223 5 -20 4 -26 -5 -21 -6 4 -11
2 -11 -4 0 -6 -4 -8 -10 -5 -6 4 -7 -1 -3 -11 4 -12 2 -15 -8 -12 -8 3 -25 -7
-38 -21 -13 -14 -20 -19 -16 -11 5 8 -5 2 -21 -15 -16 -16 -28 -33 -26 -37 1
-4 -7 -12 -18 -18 -12 -6 -17 -18 -15 -31 4 -17 2 -19 -10 -9 -15 12 -20 4
-16 -22 0 -5 -6 -8 -15 -8 -8 0 -12 -4 -9 -10 3 -5 1 -10 -5 -10 -6 0 -8 -4
-5 -10 3 -5 2 -10 -2 -10 -5 0 -26 -16 -47 -36 -46 -43 -78 -113 -81 -174 -2
-49 24 -131 51 -161 15 -17 16 -26 6 -69 -6 -27 -9 -56 -6 -64 3 -8 2 -21 -2
-28 -4 -6 -9 -25 -11 -42 -2 -16 -5 -31 -7 -33 -2 -2 0 -22 5 -43 9 -38 7 -41
-30 -76 -81 -72 -96 -217 -30 -275 16 -14 18 -22 10 -38 -14 -25 -24 -86 -23
-133 0 -21 -4 -40 -9 -43 -5 -4 -9 -21 -9 -40 0 -19 -4 -36 -9 -39 -12 -7 -79
-19 -113 -19 -16 0 -28 -4 -28 -9 0 -4 -3 -7 -7 -6 -18 4 -83 -15 -83 -24 0
-5 -4 -6 -10 -3 -5 3 -10 1 -10 -5 0 -6 -4 -9 -9 -5 -13 8 -42 -56 -43 -94 -1
-17 -4 -31 -7 -31 -4 0 -7 -8 -8 -17 -5 -86 -7 -103 -13 -103 -3 0 -7 -12 -8
-27 -2 -32 -6 -58 -16 -93 -4 -14 -9 -38 -11 -55 -2 -16 -4 -30 -5 -30 -3 0
-10 -41 -13 -72 -1 -17 -6 -29 -11 -25 -5 3 -7 -1 -4 -10 4 -8 -2 -19 -13 -26
-19 -12 -66 -96 -76 -136 -3 -11 -8 -40 -10 -63 -3 -24 -10 -43 -15 -43 -6 0
-8 -7 -4 -15 3 -8 -3 -20 -12 -27 -9 -7 -18 -19 -20 -27 -1 -7 -9 -20 -17 -28
-9 -8 -13 -18 -10 -23 3 -4 -2 -10 -10 -14 -8 -3 -12 -12 -9 -21 4 -10 2 -15
-7 -13 -8 2 -13 -2 -12 -8 1 -7 -11 -25 -27 -42 -15 -17 -26 -33 -23 -36 4 -3
0 -6 -8 -6 -11 0 -14 -21 -13 -104 0 -90 3 -107 23 -137 13 -19 20 -25 17 -14
-5 18 -4 17 14 -4 11 -13 20 -21 20 -17 0 6 72 -18 104 -35 13 -8 16 -7 11 2
-6 8 -4 10 6 3 8 -5 25 -10 38 -12 14 -2 33 -8 43 -13 13 -7 18 -6 18 2 0 8 5
7 16 -2 12 -9 60 -13 185 -13 93 -1 169 -4 169 -8 0 -10 30 -5 49 6 10 7 12 5
6 -3 -6 -10 -3 -11 11 -3 11 5 27 8 37 7 9 -2 17 0 17 4 0 4 9 7 21 8 29 3
121 33 138 47 11 8 13 8 7 -1 -12 -21 8 -15 24 7 9 12 17 16 21 9 4 -7 11 -6
20 4 14 13 72 29 111 31 10 1 26 9 38 18 13 12 20 14 20 5 0 -8 3 -8 9 2 5 7
14 10 20 7 6 -4 11 -2 11 4 0 6 4 9 9 6 5 -3 12 9 15 27 3 18 16 41 27 51 18
15 19 20 8 27 -11 7 -11 9 2 9 9 0 20 10 24 22 10 31 12 37 15 43 1 3 3 8 4
13 1 4 4 12 8 17 7 11 3 252 -4 293 -2 13 -12 31 -20 42 -9 10 -14 20 -12 23
2 2 -2 16 -9 30 -8 15 -17 24 -20 20 -4 -3 -7 1 -7 10 0 17 -57 40 -100 41
-22 1 -25 6 -25 36 -1 19 -5 41 -9 49 -6 9 -5 12 2 7 8 -5 7 4 -1 26 -7 18
-12 45 -11 61 0 15 -3 27 -8 27 -5 0 -8 8 -7 17 3 39 -1 94 -8 90 -5 -3 -9 14
-9 36 -2 40 -10 98 -19 125 -2 6 1 12 7 12 7 0 6 5 -2 15 -7 8 -9 15 -5 15 4
0 3 6 -3 13 -5 6 -9 23 -8 37 1 30 -22 60 -41 53 -8 -3 -13 0 -11 7 3 13 -13
18 -69 22 -17 1 -29 6 -27 10 3 4 -2 8 -10 8 -11 0 -15 8 -14 25 1 14 5 25 9
25 4 0 6 52 5 115 -2 68 1 115 7 115 5 0 3 7 -4 17 -12 14 -12 17 0 21 8 3 25
16 38 30 15 16 23 20 24 11 0 -8 5 -3 11 11 6 14 10 31 9 38 -1 6 2 12 7 12 5
0 9 13 8 30 -1 16 -3 30 -6 30 -3 0 -5 12 -4 27 1 35 -5 55 -17 47 -5 -3 -9 2
-9 11 0 9 -4 14 -8 11 -5 -3 -9 15 -9 39 0 25 3 45 7 45 4 0 8 39 9 87 2 89
11 109 41 97 8 -3 22 -7 30 -9 8 -1 14 -8 12 -15 -1 -6 3 -10 10 -7 7 2 23 -7
36 -20 12 -13 27 -21 32 -18 6 3 14 -4 19 -17 6 -13 10 -20 10 -16 1 10 74
-22 83 -36 6 -8 8 -7 8 2 0 8 5 9 18 3 9 -5 26 -13 37 -16 27 -10 236 -12 241
-3 3 4 12 4 21 1 11 -4 14 -3 9 5 -5 8 -2 10 8 6 10 -4 16 -1 16 7 0 11 3 11
10 -1 8 -12 10 -12 10 -1 0 8 3 11 7 8 3 -4 15 1 26 10 11 10 17 12 13 5 -7
-11 -4 -11 15 0 13 7 26 15 29 18 3 3 18 11 33 18 18 8 25 16 21 25 -5 7 0 6
11 -3 17 -14 18 -13 12 3 -4 11 -2 17 8 17 8 0 15 4 15 9 0 11 39 21 45 11 2
-4 16 -5 30 -2 15 2 25 0 25 -7 0 -20 2 -26 11 -38 7 -7 5 -13 -3 -16 -10 -4
-10 -6 0 -6 6 -1 12 -11 12 -23 0 -37 24 -138 32 -138 5 0 4 -8 -1 -19 -6 -10
-7 -22 -3 -26 4 -5 -2 -5 -12 -1 -17 6 -17 5 -5 -11 9 -11 10 -14 2 -9 -12 6
-18 -5 -14 -27 0 -4 -3 -7 -7 -7 -4 0 -8 -11 -8 -25 0 -14 3 -25 6 -25 5 0 7
-9 11 -65 1 -14 6 -22 12 -18 6 3 7 1 3 -6 -4 -6 -2 -19 6 -28 11 -14 11 -16
0 -9 -11 7 -12 4 -3 -12 6 -12 17 -24 24 -28 7 -5 6 0 -3 12 -14 18 -14 18 3
5 9 -7 17 -20 17 -27 0 -8 5 -14 10 -14 6 0 10 -43 10 -108 0 -71 4 -112 12
-120 9 -9 9 -12 -1 -12 -7 0 -9 -5 -4 -12 4 -7 8 -25 9 -39 1 -23 -1 -25 -37
-22 -24 2 -39 -1 -39 -8 0 -8 -5 -8 -15 1 -12 10 -15 10 -15 0 0 -8 -3 -11 -6
-8 -8 8 -66 -51 -60 -60 3 -5 -1 -20 -9 -35 -9 -17 -10 -27 -3 -27 7 0 7 -4 0
-13 -5 -6 -8 -22 -6 -34 2 -13 0 -23 -6 -23 -5 0 -7 -6 -4 -14 3 -8 1 -23 -5
-33 -5 -11 -6 -25 -1 -33 5 -9 5 -19 -1 -26 -6 -7 -11 -33 -12 -58 -1 -25 -5
-46 -8 -46 -3 0 -6 -21 -8 -47 -1 -26 -4 -49 -6 -53 -10 -16 -16 -118 -6 -124
5 -4 8 -15 6 -26 -2 -11 1 -20 7 -20 6 0 9 -3 5 -6 -3 -3 -2 -17 4 -31 24 -63
28 -161 6 -175 -9 -6 -8 -8 3 -8 9 0 11 -3 4 -8 -5 -4 -10 -24 -10 -45 1 -20
-1 -37 -4 -37 -3 0 -10 -16 -16 -35 -7 -21 -7 -32 -1 -28 6 4 7 1 1 -8 -5 -8
-9 -17 -10 -21 -1 -5 -2 -9 -4 -10 -2 -4 -11 -41 -12 -55 -1 -7 -4 -13 -8 -13
-6 0 -10 -16 -11 -52 0 -10 -5 -18 -10 -18 -6 0 -7 -5 -4 -10 3 -6 0 -10 -7
-10 -9 0 -9 -3 2 -10 9 -6 10 -10 3 -10 -12 0 -10 -37 3 -49 4 -3 4 3 0 14 -6
16 -5 18 6 7 7 -7 14 -17 14 -23 1 -5 2 -14 3 -21 0 -6 4 -9 7 -5 8 8 33 -16
27 -25 -2 -4 3 -5 11 -2 9 4 18 -1 22 -10 3 -9 15 -16 26 -16 10 0 16 -4 13
-10 -3 -5 3 -10 14 -10 12 0 21 -5 21 -12 0 -6 3 -9 6 -5 9 9 44 -25 37 -36
-3 -6 -1 -7 5 -3 7 4 12 2 12 -5 0 -7 3 -10 6 -6 4 3 18 0 33 -7 14 -7 36 -11
49 -10 12 0 22 -2 22 -6 0 -10 7 -10 195 -14 198 -4 307 5 420 36 22 6 49 12
60 13 11 2 32 8 48 14 15 6 27 8 27 5 0 -4 6 -1 13 5 8 6 17 7 21 3 4 -4 6 -2
4 4 -2 6 12 23 29 38 18 15 33 34 33 41 0 8 18 24 40 36 22 12 42 31 46 41 3
9 8 17 12 16 4 -1 20 4 35 10 16 7 33 12 38 12 5 0 9 5 9 10 0 6 10 10 23 10
19 0 22 5 21 41 -1 27 -7 45 -18 51 -9 5 -16 6 -16 3 0 -4 -7 0 -15 9 -10 10
-26 13 -43 10 -34 -7 -99 20 -105 43 -4 16 -5 16 -6 -1 -1 -13 -7 -17 -20 -13
-10 2 -25 0 -34 -4 -11 -7 -19 -4 -25 7 -5 10 -23 17 -46 17 l-37 2 -3 100
c-2 55 -6 111 -10 125 -4 14 -9 32 -10 40 -3 16 -9 34 -34 95 -19 45 -97 135
-118 135 -8 0 -11 6 -7 17 4 11 3 14 -5 9 -8 -5 -13 2 -14 21 -2 30 -5 55 -8
63 -4 12 -11 47 -13 65 -1 11 -6 23 -12 27 -6 5 -5 8 4 8 10 0 11 3 3 13 -6 7
-12 32 -13 55 -2 23 -6 42 -9 42 -3 0 -7 10 -7 23 -1 23 -11 82 -13 82 -1 0
-3 20 -4 45 -4 60 -4 60 -21 60 -7 0 -18 6 -22 13 -7 12 -50 26 -133 44 -14 3
-40 6 -57 6 -18 -1 -34 2 -34 6 -2 6 -2 13 -13 115 -3 36 -17 89 -31 120 l-25
56 22 35 c19 34 20 41 9 106 -14 87 -37 144 -66 167 -13 10 -20 25 -18 37 12
63 3 167 -21 236 -17 49 -22 75 -15 80 6 3 10 8 9 10 -1 2 5 22 15 44 17 40
22 128 9 168 -19 65 -78 147 -105 147 -5 0 -9 7 -9 15 0 8 -4 15 -8 15 -5 0
-14 12 -20 26 -7 14 -17 22 -22 19 -5 -3 -7 0 -4 9 3 8 -3 23 -14 34 -11 11
-18 23 -15 26 4 3 -1 6 -9 6 -9 0 -19 7 -22 16 -3 8 -11 12 -16 9 -6 -4 -9 -1
-8 7 2 7 -5 12 -15 11 -14 -1 -18 4 -14 19 5 16 3 17 -11 6 -10 -9 -13 -9 -9
-1 5 7 -2 17 -15 24 -13 6 -37 27 -55 46 -21 23 -33 30 -37 21 -3 -7 -4 5 -1
27 3 22 9 85 12 140 6 109 5 105 25 109 62 14 79 20 84 27 3 5 10 7 15 4 5 -4
9 -2 9 2 0 8 15 12 58 15 6 1 10 4 7 6 -8 8 46 32 58 25 6 -4 7 -1 3 6 -5 8 0
14 13 18 12 3 21 10 21 15 0 5 5 6 10 3 6 -3 13 1 16 10 4 9 12 14 19 11 8 -3
16 2 19 10 3 9 11 12 16 9 6 -4 9 -1 8 7 -2 7 5 12 14 12 10 -1 17 1 16 5 -3
27 3 30 45 17 23 -7 70 -11 104 -10 l62 2 10 -51 c6 -29 13 -63 15 -77 2 -14
10 -40 16 -57 10 -27 9 -35 -4 -49 -26 -26 -25 -67 4 -161 24 -79 43 -111 71
-122 17 -6 21 -18 24 -68 5 -86 49 -224 79 -245 6 -4 7 -8 2 -8 -5 0 0 -8 11
-17 11 -10 19 -26 18 -35 -2 -9 3 -28 10 -41 7 -14 11 -28 7 -31 -3 -3 0 -6 6
-6 13 0 16 -32 5 -44 -4 -3 -8 -16 -10 -28 -2 -12 -10 -47 -17 -77 -8 -31 -12
-69 -9 -86 2 -16 6 -41 8 -55 2 -14 4 -25 5 -25 3 0 10 -38 14 -75 2 -19 7
-42 10 -50 5 -11 -3 -19 -28 -28 -21 -8 -42 -26 -55 -47 -23 -39 -35 -95 -24
-110 12 -15 51 -35 69 -35 12 0 15 -6 9 -22 -6 -20 -11 -56 -14 -95 -1 -6 -7
-18 -14 -25 -13 -13 -17 -21 -17 -37 0 -4 -20 -21 -45 -37 -50 -31 -95 -89
-95 -121 0 -28 54 -73 81 -68 12 2 33 12 46 21 18 11 24 12 19 2 -3 -7 -9 -21
-12 -30 -4 -10 -11 -18 -16 -18 -5 0 -7 -4 -3 -9 3 -5 1 -12 -4 -15 -16 -10
-1 -42 30 -65 27 -20 94 -27 83 -9 -3 5 24 6 60 4 53 -4 66 -2 66 9 0 8 4 15
10 15 14 0 39 65 46 118 3 25 9 53 13 61 4 9 8 34 8 57 0 22 7 51 14 65 14 24
21 159 9 159 -4 0 -7 6 -8 13 -1 6 -3 32 -5 57 -3 25 -7 54 -9 64 -3 11 1 31
8 45 11 23 17 57 28 171 2 19 5 37 6 40 1 3 2 9 1 14 -1 4 3 14 8 20 8 10 9
128 2 178 -1 4 -10 10 -22 13 -16 5 -18 9 -8 21 9 12 9 13 -3 9 -8 -3 -21 2
-29 11 -12 15 -12 17 0 9 10 -5 12 -4 7 3 -4 7 -14 12 -22 12 -13 0 -19 12
-15 33 1 5 -3 6 -8 3 -14 -9 -28 15 -34 57 -3 20 -9 43 -15 50 -5 6 -12 35
-13 62 -2 28 -7 53 -11 56 -5 3 -9 17 -10 32 -1 15 -6 27 -11 27 -5 0 -7 11
-5 25 3 14 1 28 -5 32 -6 4 -7 1 -2 -7 5 -9 4 -11 -3 -6 -7 4 -12 16 -12 27 0
10 -4 19 -10 19 -5 0 -10 7 -10 15 0 8 -4 15 -8 15 -15 0 -41 67 -31 77 11 11
15 79 7 103 -3 8 -14 42 -24 74 -10 33 -28 68 -39 78 -16 15 -20 33 -21 84 -1
50 -8 79 -30 121 -18 37 -24 59 -18 68 5 6 26 34 46 61 106 139 84 339 -51
462 -20 18 -43 31 -51 29 -12 -3 -17 5 -18 27 -2 17 -7 33 -13 34 -6 3 -5 10
3 20 7 10 8 14 4 10 -5 -4 -16 -2 -24 5 -13 10 -14 9 -7 -2 5 -9 4 -12 -3 -7
-6 4 -8 14 -5 23 4 11 3 14 -5 9 -7 -4 -12 -1 -12 8 0 9 -7 16 -16 16 -10 0
-14 6 -11 14 4 10 0 14 -13 11 -11 -2 -19 -1 -19 3 1 4 1 14 0 22 -1 13 -2 13
-11 0 -8 -13 -10 -13 -10 1 0 17 -66 42 -83 32 -6 -3 -7 -2 -4 4 5 9 -88 40
-105 35 -5 -1 -8 3 -8 9 0 6 -9 9 -20 6 -10 -3 -24 1 -29 7 -6 7 -23 11 -38 9
-21 -3 -39 6 -73 37 -56 50 -68 60 -75 61 -28 4 -44 15 -54 35 -18 40 -13 52
22 60 60 14 72 11 110 -23 24 -22 42 -31 51 -26 28 16 96 83 96 95 0 6 3 8 6
5 4 -3 15 4 25 17 12 15 33 25 60 29 66 9 128 85 144 178 3 18 7 35 9 38 2 3
7 35 11 71 3 36 10 103 15 149 12 108 -6 173 -55 203 -29 16 -49 48 -46 71 1
4 -4 7 -9 7 -6 0 -10 8 -10 17 0 9 -8 25 -17 36 -10 11 -12 17 -5 13 6 -4 12
-2 12 3 0 6 -6 11 -14 11 -7 0 -22 12 -31 28 -10 15 -24 30 -31 35 -7 4 -11
18 -10 32 2 13 0 24 -3 23 -20 -2 -31 3 -26 12 3 6 1 10 -4 10 -6 0 -11 8 -11
18 0 9 -9 23 -20 30 -12 7 -18 17 -15 22 3 5 1 11 -5 15 -6 4 -7 12 -4 18 4 7
4 9 0 5 -11 -9 -56 37 -56 57 0 8 -5 15 -11 15 -5 0 -7 5 -4 10 3 6 -2 10 -12
10 -15 0 -16 2 -3 10 12 8 11 10 -7 10 -13 0 -23 5 -23 12 0 6 -3 8 -6 5 -4
-3 -15 -2 -26 4 -11 6 -32 13 -46 15 -15 3 -30 10 -33 16 -4 6 -12 7 -18 4 -6
-4 -11 -3 -11 3 0 6 -6 8 -14 5 -8 -3 -17 -1 -20 4 -8 13 -277 14 -298 2z"/>
</g>
</svg>
